<svg width="25" height="25" viewBox="0 0 25 25" fill="none" xmlns="http://www.w3.org/2000/svg">
<g clip-path="url(#clip0_1335_3024)">
<path d="M9.61041 19.5237C4.61041 21.0237 4.61041 17.0237 2.61041 16.5237ZM16.6104 22.5237V18.6537C16.6479 18.1768 16.5835 17.6975 16.4214 17.2475C16.2594 16.7975 16.0033 16.3871 15.6704 16.0437C18.8104 15.6937 22.1104 14.5037 22.1104 9.04368C22.1102 7.64751 21.5731 6.30488 20.6104 5.29368C21.0663 4.07219 21.034 2.72203 20.5204 1.52368C20.5204 1.52368 19.3404 1.17368 16.6104 3.00368C14.3184 2.3825 11.9024 2.3825 9.61041 3.00368C6.88041 1.17368 5.70041 1.52368 5.70041 1.52368C5.18679 2.72203 5.15456 4.07219 5.61041 5.29368C4.64054 6.31238 4.10294 7.66714 4.11041 9.07368C4.11041 14.4937 7.41041 15.6837 10.5504 16.0737C10.2214 16.4137 9.96768 16.8191 9.80572 17.2636C9.64377 17.7081 9.57722 18.1817 9.61041 18.6537V22.5237" fill="#1B69D2"/>
<path d="M9.61041 19.5237C4.61041 21.0237 4.61041 17.0237 2.61041 16.5237M16.6104 22.5237V18.6537C16.6479 18.1768 16.5835 17.6975 16.4214 17.2475C16.2594 16.7975 16.0033 16.3871 15.6704 16.0437C18.8104 15.6937 22.1104 14.5037 22.1104 9.04368C22.1102 7.64751 21.5731 6.30488 20.6104 5.29368C21.0663 4.07219 21.034 2.72203 20.5204 1.52368C20.5204 1.52368 19.3404 1.17368 16.6104 3.00368C14.3184 2.3825 11.9024 2.3825 9.61041 3.00368C6.88041 1.17368 5.70041 1.52368 5.70041 1.52368C5.18679 2.72203 5.15456 4.07219 5.61041 5.29368C4.64054 6.31238 4.10294 7.66714 4.11041 9.07368C4.11041 14.4937 7.41041 15.6837 10.5504 16.0737C10.2214 16.4137 9.96768 16.8191 9.80572 17.2636C9.64377 17.7081 9.57722 18.1817 9.61041 18.6537V22.5237" stroke="#1B69D2" stroke-linecap="round" stroke-linejoin="round"/>
</g>
<defs>
<clipPath id="clip0_1335_3024">
<rect width="24" height="24" fill="white" transform="translate(0.610413 0.523682)"/>
</clipPath>
</defs>
</svg>
